<svg xmlns="http://www.w3.org/2000/svg" width="28.445" height="22.12" viewBox="0 0 28.445 22.12">
  <path id="Icon_awesome-home" data-name="Icon awesome-home" d="M13.845,7.992l-9.1,7.5v8.093a.79.79,0,0,0,.79.79l5.534-.014a.79.79,0,0,0,.786-.79V18.843a.79.79,0,0,1,.79-.79H15.8a.79.79,0,0,1,.79.79v4.723a.79.79,0,0,0,.79.793l5.532.015a.79.79,0,0,0,.79-.79v-8.1L14.6,7.992A.6.6,0,0,0,13.845,7.992Zm14.381,5.1L24.1,9.686V2.846a.593.593,0,0,0-.593-.593H20.74a.593.593,0,0,0-.593.593V6.432L15.726,2.794a2.37,2.37,0,0,0-3.012,0L.214,13.089a.593.593,0,0,0-.079.835l1.259,1.531a.593.593,0,0,0,.835.08L13.845,5.967a.6.6,0,0,1,.756,0l11.616,9.567a.593.593,0,0,0,.835-.079l1.259-1.531a.593.593,0,0,0-.084-.836Z" transform="translate(0.001 -2.254)" fill="#8ea260"/>
</svg>
