<svg xmlns="http://www.w3.org/2000/svg" width="28.45" height="28.45" viewBox="0 0 28.45 28.45">
  <path id="Icon_awesome-route" data-name="Icon awesome-route" d="M23.116,17.781H17.781a1.778,1.778,0,1,1,0-3.556h5.334S28.45,8.279,28.45,5.334a5.334,5.334,0,1,0-10.669,0c0,1.417,1.234,3.523,2.517,5.334H17.781a5.334,5.334,0,0,0,0,10.669h5.334a1.778,1.778,0,0,1,0,3.556H10.308A38.363,38.363,0,0,1,7.679,28.45H23.116a5.334,5.334,0,0,0,0-10.669Zm0-14.225a1.778,1.778,0,1,1-1.778,1.778A1.776,1.776,0,0,1,23.116,3.556ZM5.334,14.225A5.336,5.336,0,0,0,0,19.559C0,22.5,5.334,28.45,5.334,28.45s5.334-5.946,5.334-8.891A5.336,5.336,0,0,0,5.334,14.225Zm0,7.113a1.778,1.778,0,1,1,1.778-1.778A1.776,1.776,0,0,1,5.334,21.338Z" fill="#8ea260"/>
</svg>
