<svg xmlns="http://www.w3.org/2000/svg" width="28.45" height="28.45" viewBox="0 0 28.45 28.45">
  <path id="Icon_ionic-md-settings" data-name="Icon ionic-md-settings" d="M28.4,19.023a8.9,8.9,0,0,0,.072-1.423c0-.5-.072-.924-.072-1.423l3.055-2.347a.653.653,0,0,0,.146-.924L28.693,8a.708.708,0,0,0-.873-.285L24.183,9.136A10.588,10.588,0,0,0,21.71,7.713L21.2,3.944a.78.78,0,0,0-.728-.569h-5.82a.78.78,0,0,0-.727.569l-.582,3.769a12.319,12.319,0,0,0-2.474,1.423L7.233,7.713A.681.681,0,0,0,6.36,8L3.45,12.906a.859.859,0,0,0,.146.924l3.128,2.347c0,.5-.072.924-.072,1.423s.072.924.072,1.423L3.669,21.37a.653.653,0,0,0-.146.924L6.433,27.2a.708.708,0,0,0,.873.285l3.637-1.423a10.587,10.587,0,0,0,2.473,1.423L14,31.256a.705.705,0,0,0,.727.569h5.82a.78.78,0,0,0,.728-.569l.583-3.769a12.312,12.312,0,0,0,2.473-1.423l3.637,1.423a.681.681,0,0,0,.873-.285l2.91-4.908a.858.858,0,0,0-.146-.924Zm-10.84,3.556A4.98,4.98,0,1,1,22.656,17.6,5.005,5.005,0,0,1,17.563,22.579Z" transform="translate(-3.375 -3.375)" fill="#8ea260"/>
</svg>
