<svg xmlns="http://www.w3.org/2000/svg" width="28.45" height="22.12" viewBox="0 0 28.45 22.12">
  <path id="Icon_awesome-tasks" data-name="Icon awesome-tasks" d="M7.758,2.429a.708.708,0,0,0-.945,0L3.275,5.67,2.013,4.538a.708.708,0,0,0-.945,0l-.872.8a.581.581,0,0,0,0,.87L2.841,8.64a.755.755,0,0,0,.979,0l.866-.8L8.7,4.144a.585.585,0,0,0,.005-.87Zm0,8.151a.708.708,0,0,0-.945,0L3.275,13.842,2.013,12.71a.708.708,0,0,0-.945,0l-.872.8a.581.581,0,0,0,0,.87l2.638,2.432a.754.754,0,0,0,.978,0l.872-.8,4.012-3.7A.581.581,0,0,0,8.7,11.45Zm-4.2,8.874a2.6,2.6,0,0,0-2.7,2.458,2.6,2.6,0,0,0,2.7,2.458,2.466,2.466,0,1,0,0-4.915Zm24,.819h-16a.856.856,0,0,0-.889.819V22.73a.856.856,0,0,0,.889.819h16a.856.856,0,0,0,.889-.819V21.091A.856.856,0,0,0,27.561,20.272Zm0-16.384h-16a.856.856,0,0,0-.889.819V6.345a.856.856,0,0,0,.889.819h16a.856.856,0,0,0,.889-.819V4.707A.856.856,0,0,0,27.561,3.888Zm0,8.192h-16a.856.856,0,0,0-.889.819v1.638a.856.856,0,0,0,.889.819h16a.856.856,0,0,0,.889-.819V12.9A.856.856,0,0,0,27.561,12.08Z" transform="translate(0 -2.248)" fill="#8ea260"/>
</svg>
